<?xml version="1.0" encoding="UTF-8" standalone="no"?>
<!-- Created with Inkscape (http://www.inkscape.org/) -->
<svg xmlns:dc="http://purl.org/dc/elements/1.1/" xmlns:cc="http://creativecommons.org/ns#" xmlns:rdf="http://www.w3.org/1999/02/22-rdf-syntax-ns#" xmlns:svg="http://www.w3.org/2000/svg" xmlns="http://www.w3.org/2000/svg" xmlns:sodipodi="http://sodipodi.sourceforge.net/DTD/sodipodi-0.dtd" xmlns:inkscape="http://www.inkscape.org/namespaces/inkscape" width="145.11934" height="120.87347" id="svg8108" sodipodi:version="0.32" inkscape:version="0.46" version="1.0" sodipodi:docname="easter_egg_blue_stars.svg" inkscape:output_extension="org.inkscape.output.svg.inkscape">
  <defs id="defs8110">
    <filter inkscape:collect="always" id="filter3489">
      <feGaussianBlur inkscape:collect="always" stdDeviation="1.0660625" id="feGaussianBlur3491"/>
    </filter>
    <filter inkscape:collect="always" id="filter3401">
      <feGaussianBlur inkscape:collect="always" stdDeviation="1.2674687" id="feGaussianBlur3403"/>
    </filter>
    <filter inkscape:collect="always" id="filter3585">
      <feGaussianBlur inkscape:collect="always" stdDeviation="1.1348571" id="feGaussianBlur3587"/>
    </filter>
    <filter inkscape:collect="always" id="filter3385">
      <feGaussianBlur inkscape:collect="always" stdDeviation="2.3434138" id="feGaussianBlur3387"/>
    </filter>
    <inkscape:perspective sodipodi:type="inkscape:persp3d" inkscape:vp_x="0 : 526.18109 : 1" inkscape:vp_y="0 : 1000 : 0" inkscape:vp_z="744.09448 : 526.18109 : 1" inkscape:persp3d-origin="372.04724 : 350.78739 : 1" id="perspective8116"/>
  </defs>
  <sodipodi:namedview id="base" pagecolor="#ffffff" bordercolor="#666666" borderopacity="1.0" inkscape:pageopacity="0.0" inkscape:pageshadow="2" inkscape:zoom="0.35" inkscape:cx="350" inkscape:cy="520" inkscape:document-units="px" inkscape:current-layer="layer1" showgrid="false" inkscape:window-width="1024" inkscape:window-height="699" inkscape:window-x="0" inkscape:window-y="0"/>
  <metadata id="metadata8113">
    <rdf:RDF>
      <cc:Work rdf:about="">
        <dc:format>image/svg+xml</dc:format>
        <dc:type rdf:resource="http://purl.org/dc/dcmitype/StillImage"/>
      </cc:Work>
    </rdf:RDF>
  </metadata>
  <g inkscape:label="Ebene 1" inkscape:groupmode="layer" id="layer1" transform="translate(-121.72604,-726.21117)">
    <g id="g3340" transform="matrix(0.7573434,0,0,0.7573434,-27.252864,527.12633)">
      <path transform="matrix(0.8281938,0,0,1.0217391,52.367163,-31.053481)" d="M 405.65582,396.99365 A 115.68325,46.884842 0 1 1 174.28931,396.99365 A 115.68325,46.884842 0 1 1 405.65582,396.99365 z" sodipodi:ry="46.884842" sodipodi:rx="115.68325" sodipodi:cy="396.99365" sodipodi:cx="289.97256" id="path3245" style="opacity:1;fill:#2f2f2f;fill-opacity:0.79607843;fill-rule:nonzero;stroke:none;stroke-width:0.30000001;stroke-linecap:round;stroke-linejoin:round;stroke-miterlimit:4;stroke-dasharray:none;stroke-opacity:1;filter:url(#filter3385)" sodipodi:type="arc"/>
      <g transform="matrix(-0.2652055,-0.9641919,0.9641919,-0.2652055,47.818978,714.21535)" id="g3241">
        <path style="fill:#0a66a1;fill-opacity:1;fill-rule:nonzero;stroke:none;stroke-width:0.31205362;stroke-linecap:round;stroke-linejoin:round;stroke-miterlimit:4;stroke-opacity:1" d="M 294.53125,247.6875 C 270.62967,249.46719 253.68384,269.84087 242.9375,289.4375 C 230.29441,313.54989 221.17245,341.37937 225.6875,368.84375 C 231.83577,401.69223 261.29936,430.08302 295.5625,430.125 C 331.51833,430.46984 363.08226,399.73781 366.91438,364.6339 C 370.30897,337.78798 360.52774,311.26202 348.15625,287.90625 C 338.03655,270.90902 323.87897,253.68968 303.89987,248.55963 C 300.829,247.8789 297.6815,247.51644 294.53125,247.6875 z" id="path3227"/>
        <path style="fill:#2caad7;fill-opacity:1;fill-rule:nonzero;stroke:none;stroke-width:0.31205362;stroke-linecap:round;stroke-linejoin:round;stroke-miterlimit:4;stroke-opacity:1" d="M 359.79459,336.85873 C 368.61748,383.65877 333.92453,423.48774 294.04949,423.48774 C 254.17445,423.48774 219.48148,383.65877 228.30438,336.85873 C 237.18563,289.7491 265.20305,250.22973 294.04949,250.22973 C 321.79305,250.22973 350.91334,289.7491 359.79459,336.85873 z" id="path2453" sodipodi:nodetypes="csszs"/>
        <path style="fill:#b31a40;fill-opacity:1;fill-rule:nonzero;stroke:none;stroke-width:0.31205362;stroke-linecap:round;stroke-linejoin:round;stroke-miterlimit:4;stroke-opacity:1" d="M 49.90625,239.875 C 40.507075,247.88355 33.141409,256.83162 28.78125,265.59375 C 37.662836,283.18872 37.606356,279.59014 33.65625,302.09375 C 40.502987,308.51239 50.659213,313.40261 62.59375,316.40625 C 71.305999,295.19652 67.57947,264.56257 49.90625,239.875 z" transform="matrix(-0.3501787,1.2731238,-1.2731238,-0.3501787,670.47916,319.30057)" id="path3721"/>
        <path style="fill:#f28590;fill-opacity:1;fill-rule:nonzero;stroke:none;stroke-width:0.31205362;stroke-linecap:round;stroke-linejoin:round;stroke-miterlimit:4;stroke-opacity:1" d="M 48.03125,241.5 C 40.771594,247.96934 34.859836,254.97264 30.75,261.96875 C 40.287919,280.70355 41.212688,280.59968 36.5625,304.53125 C 42.517296,309.18456 50.314706,312.90071 59.28125,315.5 C 67.837782,294.48156 65.349749,265.81661 48.03125,241.5 z" transform="matrix(-0.3501787,1.2731238,-1.2731238,-0.3501787,670.47916,319.30057)" id="path3723"/>
        <g id="g3754">
          <path id="path3729" transform="matrix(-0.3501787,1.2731238,-1.2731238,-0.3501787,670.47916,319.30057)" d="M 98.65625,217.40625 C 96.731509,217.4779 94.789628,217.63124 92.84375,217.90625 L 88.75,225.46875 L 74.25,223.84375 C 73.645431,224.14603 73.035132,224.4388 72.4375,224.75 L 83.4375,236.25 L 76.15625,252.3125 L 92.03125,244.65625 L 105.0625,256.5625 L 102.6875,239.09375 L 118.03125,230.375 L 100.65625,227.21875 L 98.65625,217.40625 z" style="fill:#b31a40;fill-opacity:1;fill-rule:evenodd;stroke:none;stroke-width:1.70000005;stroke-linecap:butt;stroke-linejoin:round;stroke-miterlimit:4;stroke-opacity:1"/>
          <path id="path3739" d="M 329.61575,349.40106 C 328.15809,355.64097 321.15032,358.11947 316.22226,361.19752 C 323.1969,361.61952 334.51902,361.75649 334.6973,371.21541 C 335.57984,373.31187 335.8819,383.07843 337.52845,376.91401 C 339.095,370.03726 344.50144,362.35306 352.54677,364.75 C 354.42623,364.66293 360.32233,366.43835 359.70577,365.11756 C 354.3944,361.06071 346.37086,355.49305 350.3049,347.76771 C 351.63787,344.74496 353.74332,339.80793 353.6442,339.1654 C 348.30992,342.4974 340.19574,349.16294 334.55211,342.72245 C 331.62104,341.40254 325.83572,332.88739 327.87727,339.79926 C 328.45677,342.99987 329.03627,346.20047 329.61575,349.40106 z" style="fill:#f28590;fill-opacity:1;fill-rule:evenodd;stroke:none;stroke-width:1.70000005;stroke-linecap:butt;stroke-linejoin:round;stroke-miterlimit:4;stroke-opacity:1"/>
        </g>
        <path id="path3247" transform="matrix(-0.2652055,0.9641919,-0.9641919,-0.2652055,701.32253,143.30717)" d="M 311.53125,270.03125 C 300.2709,269.93548 288.55209,272.41225 277.1875,277.96875 C 242.26871,295.04162 215.69858,323.60146 210.8125,348.0625 C 220.8203,326.98285 249.13541,304.21517 285,289.9375 C 310.66009,279.72223 337.79234,280.55747 359.75,288.75 C 347.1425,277.21265 329.94193,270.18783 311.53125,270.03125 z" style="fill:#ffffff;fill-opacity:0.38907848;fill-rule:nonzero;stroke:none;stroke-width:0.31205362;stroke-linecap:round;stroke-linejoin:round;stroke-miterlimit:4;stroke-opacity:1;filter:url(#filter3585)"/>
        <path sodipodi:type="star" style="fill:#f28590;fill-opacity:1;fill-rule:evenodd;stroke:#b31a40;stroke-width:1.70000005;stroke-linecap:butt;stroke-linejoin:round;stroke-miterlimit:4;stroke-dasharray:none;stroke-opacity:1" id="path3727" sodipodi:sides="5" sodipodi:cx="74.507393" sodipodi:cy="278.78543" sodipodi:r1="18.528847" sodipodi:r2="7.6244683" sodipodi:arg1="-1.5167948" sodipodi:arg2="-0.88847627" inkscape:flatsided="false" inkscape:rounded="0" inkscape:randomized="0" d="M 75.507493,260.28359 L 79.315347,272.86799 L 92.412733,274.0192 L 81.620952,281.52948 L 84.573402,294.34158 L 74.09586,286.39878 L 62.823188,293.16589 L 67.139492,280.7467 L 57.220148,272.1169 L 70.365313,272.38421 L 75.507493,260.28359 z" transform="matrix(-0.2727553,0.99164,-0.99164,-0.2727553,583.83468,335.84828)"/>
        <g id="g3783">
          <path id="path3758" transform="matrix(-0.3501787,1.2731238,-1.2731238,-0.3501787,670.47916,319.30057)" d="M 125.8125,254.71875 L 126.09375,274.9375 L 107.4375,282.71875 L 126.78125,288.6875 L 128.4375,308.84375 L 140.0625,292.3125 L 145.15625,293.5 C 147.08768,290.45808 148.73147,287.25129 150,283.9375 L 147.625,280.78125 L 152.9375,272.03125 C 153.2174,269.75473 153.36158,267.45086 153.3125,265.15625 L 139,270.03125 L 125.8125,254.71875 z" style="fill:#b31a40;fill-opacity:1;fill-rule:evenodd;stroke:none;stroke-width:1px;stroke-linecap:butt;stroke-linejoin:miter;stroke-opacity:1"/>
          <path id="path3760" transform="matrix(-0.3501787,1.2731238,-1.2731238,-0.3501787,670.47916,319.30057)" d="M 128.03125,260.03125 C 127.44859,265.72845 131.37623,274.01963 125,277.65625 C 121.809,280.02111 116.79475,280.69131 114.03125,282.4375 C 119.46986,283.97707 128.26449,284.25619 129.53125,291.1875 C 130.15445,294.64206 129.47639,300.21676 130.21875,302.34375 C 134.10543,297.86931 136.84546,288.40345 144.5,290.3125 C 145.13672,290.57774 145.8507,290.87176 146.5625,291.15625 C 147.38171,289.71016 148.13536,288.22354 148.8125,286.71875 C 147.00238,284.45904 145.82152,281.90734 146.65625,278.6875 C 147.31324,274.30018 151.66765,270.19029 153.28125,267.34375 C 153.28202,267.31257 153.28054,267.28118 153.28125,267.25 C 148.1012,268.28673 143.05108,272.86524 137.65625,271 C 133.1314,268.68059 131.41444,263.47034 128.03125,260.03125 z" style="fill:#f28590;fill-opacity:1;fill-rule:evenodd;stroke:none;stroke-width:1px;stroke-linecap:butt;stroke-linejoin:miter;stroke-opacity:1"/>
        </g>
        <path id="path3266" transform="matrix(-0.2652055,0.9641919,-0.9641919,-0.2652055,701.32253,143.30717)" d="M 386.34375,333.0625 C 373.76374,350.06572 349.74074,364.33856 318.125,369.0625 C 273.71206,375.69858 230.11935,372.0702 207.375,359.875 C 207.64214,361.45561 208.02122,363.00581 208.53125,364.53125 C 216.58604,387.10499 240.72385,398.05435 262.46875,403.21875 C 289.07075,409.01439 318.31023,410.41833 343.59375,398.78125 C 368.25607,386.76299 385.83697,360.40543 386.34375,333.0625 z" style="fill:#000000;fill-opacity:0.2662116;fill-rule:nonzero;stroke:none;stroke-width:0.31205362;stroke-linecap:round;stroke-linejoin:round;stroke-miterlimit:4;stroke-opacity:1;filter:url(#filter3401)"/>
        <path id="path3271" transform="matrix(-0.2652055,0.9641919,-0.9641919,-0.2652055,701.32253,143.30717)" d="M 382.78125,353.59375 C 369.29237,370.81801 347.57246,384.68239 320.15625,389.71875 C 283.71988,396.41215 247.84191,394.60578 223.5625,385.46875 C 234.49386,394.56027 248.94194,400.00614 262.46875,403.21875 C 289.07075,409.01439 318.31023,410.41833 343.59375,398.78125 C 361.9552,389.83348 376.38914,372.9312 382.78125,353.59375 z" style="fill:#000000;fill-opacity:0.35836176;fill-rule:nonzero;stroke:none;stroke-width:0.31205362;stroke-linecap:round;stroke-linejoin:round;stroke-miterlimit:4;stroke-opacity:1;filter:url(#filter3489)"/>
      </g>
    </g>
  </g>
</svg>