<?xml version="1.0" encoding="UTF-8" standalone="no"?>
<!-- Created with Inkscape (http://www.inkscape.org/) -->
<svg xmlns:dc="http://purl.org/dc/elements/1.1/" xmlns:cc="http://creativecommons.org/ns#" xmlns:rdf="http://www.w3.org/1999/02/22-rdf-syntax-ns#" xmlns:svg="http://www.w3.org/2000/svg" xmlns="http://www.w3.org/2000/svg" xmlns:sodipodi="http://sodipodi.sourceforge.net/DTD/sodipodi-0.dtd" xmlns:inkscape="http://www.inkscape.org/namespaces/inkscape" width="145.11934" height="120.87347" id="svg8163" sodipodi:version="0.32" inkscape:version="0.46" version="1.0" sodipodi:docname="easter_egg_orange_circles.svg" inkscape:output_extension="org.inkscape.output.svg.inkscape">
  <defs id="defs8165">
    <filter inkscape:collect="always" id="filter3489">
      <feGaussianBlur inkscape:collect="always" stdDeviation="1.0660625" id="feGaussianBlur3491"/>
    </filter>
    <filter inkscape:collect="always" id="filter3401">
      <feGaussianBlur inkscape:collect="always" stdDeviation="1.2674687" id="feGaussianBlur3403"/>
    </filter>
    <filter inkscape:collect="always" id="filter3585">
      <feGaussianBlur inkscape:collect="always" stdDeviation="1.1348571" id="feGaussianBlur3587"/>
    </filter>
    <filter inkscape:collect="always" id="filter3385">
      <feGaussianBlur inkscape:collect="always" stdDeviation="2.3434138" id="feGaussianBlur3387"/>
    </filter>
    <inkscape:perspective sodipodi:type="inkscape:persp3d" inkscape:vp_x="0 : 526.18109 : 1" inkscape:vp_y="0 : 1000 : 0" inkscape:vp_z="744.09448 : 526.18109 : 1" inkscape:persp3d-origin="372.04724 : 350.78739 : 1" id="perspective8171"/>
  </defs>
  <sodipodi:namedview id="base" pagecolor="#ffffff" bordercolor="#666666" borderopacity="1.0" inkscape:pageopacity="0.0" inkscape:pageshadow="2" inkscape:zoom="0.35" inkscape:cx="350" inkscape:cy="520" inkscape:document-units="px" inkscape:current-layer="layer1" showgrid="false" inkscape:window-width="1024" inkscape:window-height="699" inkscape:window-x="0" inkscape:window-y="0"/>
  <metadata id="metadata8168">
    <rdf:RDF>
      <cc:Work rdf:about="">
        <dc:format>image/svg+xml</dc:format>
        <dc:type rdf:resource="http://purl.org/dc/dcmitype/StillImage"/>
      </cc:Work>
    </rdf:RDF>
  </metadata>
  <g inkscape:label="Ebene 1" inkscape:groupmode="layer" id="layer1" transform="translate(-36.011758,-586.21117)">
    <g transform="matrix(0.7573434,0,0,0.7573434,-112.96715,387.12633)" id="g3605">
      <path sodipodi:type="arc" style="opacity:1;fill:#2f2f2f;fill-opacity:0.79607843;fill-rule:nonzero;stroke:none;stroke-width:0.30000001;stroke-linecap:round;stroke-linejoin:round;stroke-miterlimit:4;stroke-dasharray:none;stroke-opacity:1;filter:url(#filter3385)" id="path3607" sodipodi:cx="289.97256" sodipodi:cy="396.99365" sodipodi:rx="115.68325" sodipodi:ry="46.884842" d="M 405.65582,396.99365 A 115.68325,46.884842 0 1 1 174.28931,396.99365 A 115.68325,46.884842 0 1 1 405.65582,396.99365 z" transform="matrix(0.8281938,0,0,1.0217391,52.367163,-31.053481)"/>
      <g id="g3609" transform="matrix(-0.2652055,-0.9641919,0.9641919,-0.2652055,47.818978,714.21535)">
        <path id="path3611" d="M 294.53125,247.6875 C 270.62967,249.46719 253.68384,269.84087 242.9375,289.4375 C 230.29441,313.54989 221.17245,341.37937 225.6875,368.84375 C 231.83577,401.69223 261.29936,430.08302 295.5625,430.125 C 331.51833,430.46984 363.08226,399.73781 366.91438,364.6339 C 370.30897,337.78798 360.52774,311.26202 348.15625,287.90625 C 338.03655,270.90902 323.87897,253.68968 303.89987,248.55963 C 300.829,247.8789 297.6815,247.51644 294.53125,247.6875 z" style="fill:#7b500b;fill-opacity:1;fill-rule:nonzero;stroke:none;stroke-width:0.31205362;stroke-linecap:round;stroke-linejoin:round;stroke-miterlimit:4;stroke-opacity:1"/>
        <path sodipodi:nodetypes="csszs" id="path3613" d="M 359.79459,336.85873 C 368.61748,383.65877 333.92453,423.48774 294.04949,423.48774 C 254.17445,423.48774 219.48148,383.65877 228.30438,336.85873 C 237.18563,289.7491 265.20305,250.22973 294.04949,250.22973 C 321.79305,250.22973 350.91334,289.7491 359.79459,336.85873 z" style="fill:#e8b929;fill-opacity:1;fill-rule:nonzero;stroke:none;stroke-width:0.31205362;stroke-linecap:round;stroke-linejoin:round;stroke-miterlimit:4;stroke-opacity:1"/>
        <path style="opacity:1;fill:#29abe8;fill-opacity:1;fill-rule:nonzero;stroke:none;stroke-width:1.70000005;stroke-linecap:round;stroke-linejoin:round;stroke-miterlimit:4;stroke-dasharray:none;stroke-opacity:1" d="M 187.3125,308.8125 C 177.99291,315.60194 170.17055,323.3625 164.53125,331.28125 C 168.01991,337.28996 176.69605,339.65533 185.03125,336.5 C 194.20003,333.02913 199.47934,324.20788 196.84375,316.8125 C 195.38214,312.71128 191.79108,309.90693 187.3125,308.8125 z" transform="matrix(-0.3501787,1.2731238,-1.2731238,-0.3501787,810.88999,179.26084)" id="path3789"/>
        <path style="fill:#dfe829;fill-opacity:1;fill-rule:nonzero;stroke:none;stroke-width:1.70000005;stroke-linecap:round;stroke-linejoin:round;stroke-miterlimit:4;stroke-opacity:1" d="M 185.28125,310.3125 C 177.53468,316.21162 170.92289,322.7809 165.84375,329.5 C 166.59519,331.26479 167.88829,332.8156 169.84375,333.9375 C 179.51845,340.68097 197.42029,330.9296 195.40625,319.375 C 194.76406,314.36003 190.43017,311.15876 185.28125,310.3125 z" transform="matrix(-0.3501787,1.2731238,-1.2731238,-0.3501787,810.88999,179.26084)" id="path3806"/>
        <path style="fill:#29abe8;fill-opacity:1;fill-rule:nonzero;stroke:none;stroke-width:1.70000005;stroke-linecap:round;stroke-linejoin:round;stroke-miterlimit:4;stroke-opacity:1" d="M 239.6875,292.40625 C 235.89836,294.70491 233.3002,298.06525 232.75,302.0625 C 231.56037,310.70521 240.28358,319.04469 252.21875,320.6875 C 261.86278,322.01495 270.6593,318.55993 274.3125,312.625 C 266.23661,301.9609 253.72372,294.55964 239.6875,292.40625 z" transform="matrix(-0.3501787,1.2731238,-1.2731238,-0.3501787,810.88999,179.26084)" id="path3795"/>
        <path style="fill:#dfe829;fill-opacity:1;fill-rule:nonzero;stroke:none;stroke-width:1.70000005;stroke-linecap:round;stroke-linejoin:round;stroke-miterlimit:4;stroke-opacity:1" d="M 244.90625,293.46875 C 242.4031,294.46708 240.1011,295.977 238.25,298.0625 C 236.26964,300.46011 235.40666,303.82073 236.625,306.78125 C 240.82281,316.95416 254.16679,319.63744 263.84375,316.6875 C 267.39607,315.78714 270.52983,313.00998 271.90625,309.6875 C 264.97544,301.86562 255.51799,296.15259 244.90625,293.46875 z" transform="matrix(-0.3501787,1.2731238,-1.2731238,-0.3501787,810.88999,179.26084)" id="path3799"/>
        <path style="fill:#ffffff;fill-opacity:0.38907848;fill-rule:nonzero;stroke:none;stroke-width:0.31205362;stroke-linecap:round;stroke-linejoin:round;stroke-miterlimit:4;stroke-opacity:1;filter:url(#filter3585)" d="M 311.53125,270.03125 C 300.2709,269.93548 288.55209,272.41225 277.1875,277.96875 C 242.26871,295.04162 215.69858,323.60146 210.8125,348.0625 C 220.8203,326.98285 249.13541,304.21517 285,289.9375 C 310.66009,279.72223 337.79234,280.55747 359.75,288.75 C 347.1425,277.21265 329.94193,270.18783 311.53125,270.03125 z" transform="matrix(-0.2652055,0.9641919,-0.9641919,-0.2652055,701.32253,143.30717)" id="path3615"/>
        <path style="opacity:1;fill:#29abe8;fill-opacity:1;fill-rule:nonzero;stroke:none;stroke-width:1.70000005;stroke-linecap:round;stroke-linejoin:round;stroke-miterlimit:4;stroke-dasharray:none;stroke-opacity:1" d="M 167.84375,368.25 C 164.45431,368.25 161.27892,368.7766 158.53125,369.6875 C 162.9133,376.84455 170.88079,382.71789 181.0625,386.90625 C 184.50283,384.92839 186.65625,382.18561 186.65625,379.15625 C 186.65625,373.1324 178.22969,368.24999 167.84375,368.25 z" transform="matrix(-0.3501787,1.2731238,-1.2731238,-0.3501787,810.88999,179.26084)" id="path3791"/>
        <path style="fill:#000000;fill-opacity:0.2662116;fill-rule:nonzero;stroke:none;stroke-width:0.31205362;stroke-linecap:round;stroke-linejoin:round;stroke-miterlimit:4;stroke-opacity:1;filter:url(#filter3401)" d="M 386.34375,333.0625 C 373.76374,350.06572 349.74074,364.33856 318.125,369.0625 C 273.71206,375.69858 230.11935,372.0702 207.375,359.875 C 207.64214,361.45561 208.02122,363.00581 208.53125,364.53125 C 216.58604,387.10499 240.72385,398.05435 262.46875,403.21875 C 289.07075,409.01439 318.31023,410.41833 343.59375,398.78125 C 368.25607,386.76299 385.83697,360.40543 386.34375,333.0625 z" transform="matrix(-0.2652055,0.9641919,-0.9641919,-0.2652055,701.32253,143.30717)" id="path3617"/>
        <path sodipodi:type="arc" style="opacity:1;fill:#29abe8;fill-opacity:1;fill-rule:nonzero;stroke:none;stroke-width:1.70000005;stroke-linecap:round;stroke-linejoin:round;stroke-miterlimit:4;stroke-dasharray:none;stroke-opacity:1" id="path3793" sodipodi:cx="221.64204" sodipodi:cy="362.6001" sodipodi:rx="16.933603" sodipodi:ry="11.665371" d="M 238.57565,362.6001 A 16.933603,11.665371 0 1 1 204.70844,362.6001 A 16.933603,11.665371 0 1 1 238.57565,362.6001 z" transform="matrix(3.8975231e-3,1.6062549,-1.6327421,0.1072344,879.08892,-58.016562)"/>
        <path style="opacity:1;fill:#29abe8;fill-opacity:1;fill-rule:nonzero;stroke:none;stroke-width:1.70000005;stroke-linecap:round;stroke-linejoin:round;stroke-miterlimit:4;stroke-dasharray:none;stroke-opacity:1" d="M 268.6875,366.75 C 259.54787,366.75 252.125,373.4725 252.125,381.78125 C 252.125,383.9222 252.64369,385.96801 253.53125,387.8125 C 262.79531,383.16981 270.28284,376.24046 275.5,368.09375 C 273.41854,367.23575 271.12043,366.75 268.6875,366.75 z" transform="matrix(-0.3501787,1.2731238,-1.2731238,-0.3501787,810.88999,179.26084)" id="path3797"/>
        <path style="opacity:1;fill:#dfe829;fill-opacity:1;fill-rule:nonzero;stroke:none;stroke-width:1.70000005;stroke-linecap:round;stroke-linejoin:round;stroke-miterlimit:4;stroke-dasharray:none;stroke-opacity:1" d="M 268.6875,368.71875 C 268.1924,368.72548 267.70985,368.75111 267.21875,368.8125 C 258.36339,368.87151 251.24162,379.06337 255.21875,386.9375 C 263.07061,382.66428 269.53786,376.70227 274.34375,369.78125 C 272.54773,369.0769 270.60237,368.69274 268.6875,368.71875 z" transform="matrix(-0.3501787,1.2731238,-1.2731238,-0.3501787,810.88999,179.26084)" id="path3819"/>
        <path style="opacity:1;fill:#dfe829;fill-opacity:1;fill-rule:nonzero;stroke:none;stroke-width:1.70000005;stroke-linecap:round;stroke-linejoin:round;stroke-miterlimit:4;stroke-dasharray:none;stroke-opacity:1" d="M 166.9375,370.46875 C 166.64021,370.4683 166.32649,370.47215 166.03125,370.53125 C 164.17705,370.7322 161.95256,371.02105 159.78125,371.59375 C 163.93285,377.31858 170.44852,382.15228 178.5625,385.84375 C 181.41661,384.60311 183.75803,382.56862 184.65625,379.15625 C 182.71235,371.63737 173.66578,370.83133 167.8125,370.46875 C 167.51565,370.48114 167.23479,370.4692 166.9375,370.46875 z" transform="matrix(-0.3501787,1.2731238,-1.2731238,-0.3501787,810.88999,179.26084)" id="path3815"/>
        <path style="fill:#000000;fill-opacity:0.35836176;fill-rule:nonzero;stroke:none;stroke-width:0.31205362;stroke-linecap:round;stroke-linejoin:round;stroke-miterlimit:4;stroke-opacity:1;filter:url(#filter3489)" d="M 382.78125,353.59375 C 369.29237,370.81801 347.57246,384.68239 320.15625,389.71875 C 283.71988,396.41215 247.84191,394.60578 223.5625,385.46875 C 234.49386,394.56027 248.94194,400.00614 262.46875,403.21875 C 289.07075,409.01439 318.31023,410.41833 343.59375,398.78125 C 361.9552,389.83348 376.38914,372.9312 382.78125,353.59375 z" transform="matrix(-0.2652055,0.9641919,-0.9641919,-0.2652055,701.32253,143.30717)" id="path3619"/>
        <path style="opacity:1;fill:#dfe829;fill-opacity:1;fill-rule:nonzero;stroke:none;stroke-width:1.70000005;stroke-linecap:round;stroke-linejoin:round;stroke-miterlimit:4;stroke-dasharray:none;stroke-opacity:1" d="M 303.58865,333.31362 C 303.62189,323.37072 295.43316,308.64742 283.38492,314.20772 C 268.31399,324.44778 268.26498,350.33665 282.3724,359.60795 C 296.98698,366.22481 305.31171,344.00736 303.58865,333.31362 z" id="path3811"/>
      </g>
    </g>
  </g>
</svg>