<?xml version="1.0" encoding="UTF-8" standalone="no"?>
<!-- Created with Inkscape (http://www.inkscape.org/) -->
<svg xmlns:dc="http://purl.org/dc/elements/1.1/" xmlns:cc="http://creativecommons.org/ns#" xmlns:rdf="http://www.w3.org/1999/02/22-rdf-syntax-ns#" xmlns:svg="http://www.w3.org/2000/svg" xmlns="http://www.w3.org/2000/svg" xmlns:sodipodi="http://sodipodi.sourceforge.net/DTD/sodipodi-0.dtd" xmlns:inkscape="http://www.inkscape.org/namespaces/inkscape" width="145.11934" height="120.87347" id="svg3207" sodipodi:version="0.32" inkscape:version="0.46" version="1.0" sodipodi:docname="pink_easter_egg.svg" inkscape:output_extension="org.inkscape.output.svg.inkscape">
  <defs id="defs3209">
    <filter inkscape:collect="always" id="filter3489">
      <feGaussianBlur inkscape:collect="always" stdDeviation="1.0660625" id="feGaussianBlur3491"/>
    </filter>
    <filter inkscape:collect="always" id="filter3401">
      <feGaussianBlur inkscape:collect="always" stdDeviation="1.2674687" id="feGaussianBlur3403"/>
    </filter>
    <filter inkscape:collect="always" id="filter3585">
      <feGaussianBlur inkscape:collect="always" stdDeviation="1.1348571" id="feGaussianBlur3587"/>
    </filter>
    <filter inkscape:collect="always" id="filter3385">
      <feGaussianBlur inkscape:collect="always" stdDeviation="2.3434138" id="feGaussianBlur3387"/>
    </filter>
    <inkscape:perspective sodipodi:type="inkscape:persp3d" inkscape:vp_x="0 : 526.18109 : 1" inkscape:vp_y="0 : 1000 : 0" inkscape:vp_z="744.09448 : 526.18109 : 1" inkscape:persp3d-origin="372.04724 : 350.78739 : 1" id="perspective3215"/>
  </defs>
  <sodipodi:namedview id="base" pagecolor="#ffffff" bordercolor="#666666" borderopacity="1.0" inkscape:pageopacity="0.0" inkscape:pageshadow="2" inkscape:zoom="0.35" inkscape:cx="350" inkscape:cy="520" inkscape:document-units="px" inkscape:current-layer="layer1" showgrid="false" inkscape:window-width="1024" inkscape:window-height="699" inkscape:window-x="0" inkscape:window-y="0"/>
  <metadata id="metadata3212">
    <rdf:RDF>
      <cc:Work rdf:about="">
        <dc:format>image/svg+xml</dc:format>
        <dc:type rdf:resource="http://purl.org/dc/dcmitype/StillImage"/>
      </cc:Work>
    </rdf:RDF>
  </metadata>
  <g inkscape:label="Ebene 1" inkscape:groupmode="layer" id="layer1" transform="translate(-501.72605,-649.06831)">
    <g transform="matrix(0.7573434,0,0,0.7573434,352.74714,449.98347)" id="g3621">
      <path sodipodi:type="arc" style="opacity:1;fill:#2f2f2f;fill-opacity:0.79607843;fill-rule:nonzero;stroke:none;stroke-width:0.30000001;stroke-linecap:round;stroke-linejoin:round;stroke-miterlimit:4;stroke-dasharray:none;stroke-opacity:1;filter:url(#filter3385)" id="path3623" sodipodi:cx="289.97256" sodipodi:cy="396.99365" sodipodi:rx="115.68325" sodipodi:ry="46.884842" d="M 405.65582,396.99365 A 115.68325,46.884842 0 1 1 174.28931,396.99365 A 115.68325,46.884842 0 1 1 405.65582,396.99365 z" transform="matrix(0.8281938,0,0,1.0217391,52.367163,-31.053481)"/>
      <g id="g3625" transform="matrix(-0.2652055,-0.9641919,0.9641919,-0.2652055,47.818978,714.21535)">
        <path id="path3627" d="M 294.53125,247.6875 C 270.62967,249.46719 253.68384,269.84087 242.9375,289.4375 C 230.29441,313.54989 221.17245,341.37937 225.6875,368.84375 C 231.83577,401.69223 261.29936,430.08302 295.5625,430.125 C 331.51833,430.46984 363.08226,399.73781 366.91438,364.6339 C 370.30897,337.78798 360.52774,311.26202 348.15625,287.90625 C 338.03655,270.90902 323.87897,253.68968 303.89987,248.55963 C 300.829,247.8789 297.6815,247.51644 294.53125,247.6875 z" style="fill:#a55148;fill-opacity:1;fill-rule:nonzero;stroke:none;stroke-width:0.31205362;stroke-linecap:round;stroke-linejoin:round;stroke-miterlimit:4;stroke-opacity:1"/>
        <path sodipodi:nodetypes="csszs" id="path3629" d="M 359.79459,336.85873 C 368.61748,383.65877 333.92453,423.48774 294.04949,423.48774 C 254.17445,423.48774 219.48148,383.65877 228.30438,336.85873 C 237.18563,289.7491 265.20305,250.22973 294.04949,250.22973 C 321.79305,250.22973 350.91334,289.7491 359.79459,336.85873 z" style="fill:#e38c7a;fill-opacity:1;fill-rule:nonzero;stroke:none;stroke-width:0.31205362;stroke-linecap:round;stroke-linejoin:round;stroke-miterlimit:4;stroke-opacity:1"/>
        <path style="fill:#b35552;fill-opacity:1;fill-rule:nonzero;stroke:none;stroke-width:1.70000005;stroke-linecap:round;stroke-linejoin:round;stroke-miterlimit:4;stroke-dasharray:none;stroke-opacity:1" d="M 450.21875,128.3125 C 445.05669,129.24516 439.85481,130.91035 434.75,133.40625 C 431.22097,135.1317 427.8113,137.02359 424.53125,139.03125 C 440.26439,136.86013 456.91566,138.03963 469.75,147.8125 C 480.97893,157.02339 496.20597,163.87844 510.9375,163.1875 C 509.81417,159.3968 508.22574,155.79788 506.21875,152.46875 C 499.35033,150.91006 492.82854,147.92292 487.25,143.375 C 477.79097,136.10359 467.26523,129.5531 455.03125,128.84375 C 453.43579,128.61273 451.8307,128.43225 450.21875,128.3125 z" transform="matrix(-0.3501787,1.2731238,-1.2731238,-0.3501787,681.88843,-169.91585)" id="path8559"/>
        <path style="fill:#349427;fill-opacity:1;fill-rule:nonzero;stroke:none;stroke-width:1.70000005;stroke-linecap:round;stroke-linejoin:round;stroke-miterlimit:4;stroke-dasharray:none;stroke-opacity:1" d="M 438.125,145.6875 C 436.82706,145.67145 435.53875,145.69034 434.25,145.71875 C 424.96153,146.09208 415.11342,147.89194 406.78125,152.28125 C 403.06564,155.65799 399.73274,159.16998 396.8125,162.75 C 398.51517,164.14258 402.71087,160.97125 405.1875,160.90625 C 421.26148,157.48917 439.23639,154.69474 454.6875,161.75 C 470.63458,171.67697 489.50277,181.68514 508.84375,177.53125 C 509.95117,177.1072 511.41305,176.64969 512.84375,176.0625 C 512.83657,174.00397 512.68837,171.95797 512.40625,169.90625 C 506.06176,169.48074 499.61414,168.72041 493.59375,166.3125 C 483.02802,163.11072 473.70727,157.06282 464.71875,150.875 C 456.43841,147.09602 447.21056,145.79986 438.125,145.6875 z" transform="matrix(-0.3501787,1.2731238,-1.2731238,-0.3501787,681.88843,-169.91585)" id="path8551"/>
        <path style="fill:#b35552;fill-opacity:1;fill-rule:nonzero;stroke:none;stroke-width:1.70000005;stroke-linecap:round;stroke-linejoin:round;stroke-miterlimit:4;stroke-dasharray:none;stroke-opacity:1" d="M 424.4375,162.15625 C 413.52181,162.58682 401.52821,164.03685 391.875,169.53125 C 389.75297,172.79849 387.99373,176.04874 386.6875,179.28125 C 387.35173,179.07311 388.00168,178.80718 388.5,178.5 C 408.16157,173.67323 431.21518,172.81502 448.625,184.1875 C 463.20732,197.59631 485.65711,199.09245 503.09375,190.65625 C 505.9579,189.08345 509.22051,187.70186 511.90625,185.71875 C 512.2804,183.83964 512.53556,181.93668 512.6875,180.03125 C 509.65519,179.60096 505.37843,181.81384 502.40625,181.40625 C 487.21329,183.78334 470.57624,183.2557 458.5,172.53125 C 449.4846,163.87137 436.45427,162.05026 424.4375,162.15625 z" transform="matrix(-0.3501787,1.2731238,-1.2731238,-0.3501787,681.88843,-169.91585)" id="path8553"/>
        <path style="fill:#eeb2b3;fill-opacity:1;fill-rule:nonzero;stroke:none;stroke-width:1.70000005;stroke-linecap:round;stroke-linejoin:round;stroke-miterlimit:4;stroke-dasharray:none;stroke-opacity:1" d="M 443.03125,130.09375 C 440.25871,130.97181 437.48952,132.06681 434.75,133.40625 C 432.79557,134.36183 430.88135,135.39151 429,136.4375 C 442.8902,135.2851 459.48073,136.76407 471,146.15625 C 483.89992,156.67413 498.17416,161.46449 510.3125,161.15625 C 509.57011,159.02287 508.66039,156.95096 507.625,154.96875 C 493.67084,152.53458 486.47301,144.41735 472.875,136.15625 C 466.51344,132.29145 455.00128,130.13789 443.03125,130.09375 z" transform="matrix(-0.3501787,1.2731238,-1.2731238,-0.3501787,681.88843,-169.91585)" id="path8524"/>
        <path style="fill:#7fe66b;fill-opacity:1;fill-rule:nonzero;stroke:none;stroke-width:1.70000005;stroke-linecap:round;stroke-linejoin:round;stroke-miterlimit:4;stroke-dasharray:none;stroke-opacity:1" d="M 438.1875,147.71875 C 423.77147,147.54035 407.82756,151.09996 398.15625,161.15625 C 401.92981,158.53041 440.15698,149.74052 457.34375,160.96875 C 476.15105,173.25567 499.10226,181.05068 512.78125,173.78125 C 512.74866,173.15592 512.71423,172.53091 512.65625,171.90625 C 498.57882,172.18938 477.35022,163.17538 467.5625,155.0625 C 462.66051,150.99932 451.02893,147.87766 438.1875,147.71875 z" transform="matrix(-0.3501787,1.2731238,-1.2731238,-0.3501787,681.88843,-169.91585)" id="path8516"/>
        <path style="fill:#eeb2b3;fill-opacity:1;fill-rule:nonzero;stroke:none;stroke-width:1.70000005;stroke-linecap:round;stroke-linejoin:round;stroke-miterlimit:4;stroke-dasharray:none;stroke-opacity:1" d="M 425.78125,164.1875 C 412.36433,164.15727 398.1321,167.36799 389.625,173.25 C 389.00181,174.36643 388.40238,175.45079 387.875,176.5625 C 398.61111,173.28707 432.4891,168.25393 452.03125,184.1875 C 472.55175,200.91879 498.98821,193.0107 512.40625,182.75 C 512.43746,182.52164 512.44078,182.29122 512.46875,182.0625 C 481.96358,186.67097 471.0785,185.8157 454.15625,171.6875 C 448.05426,166.59302 437.21761,164.21327 425.78125,164.1875 z" transform="matrix(-0.3501787,1.2731238,-1.2731238,-0.3501787,681.88843,-169.91585)" id="path8518"/>
        <path style="fill:#ffffff;fill-opacity:0.38907848;fill-rule:nonzero;stroke:none;stroke-width:0.31205362;stroke-linecap:round;stroke-linejoin:round;stroke-miterlimit:4;stroke-opacity:1;filter:url(#filter3585)" d="M 311.53125,270.03125 C 300.2709,269.93548 288.55209,272.41225 277.1875,277.96875 C 242.26871,295.04162 215.69858,323.60146 210.8125,348.0625 C 220.8203,326.98285 249.13541,304.21517 285,289.9375 C 310.66009,279.72223 337.79234,280.55747 359.75,288.75 C 347.1425,277.21265 329.94193,270.18783 311.53125,270.03125 z" transform="matrix(-0.2652055,0.9641919,-0.9641919,-0.2652055,701.32253,143.30717)" id="path3631"/>
        <path style="fill:#349427;fill-opacity:1;fill-rule:nonzero;stroke:none;stroke-width:1.70000005;stroke-linecap:round;stroke-linejoin:round;stroke-miterlimit:4;stroke-dasharray:none;stroke-opacity:1" d="M 415,180.625 C 414.1666,180.61987 413.33015,180.63082 412.5,180.65625 C 402.39291,181.09711 391.36347,183.74218 383.90625,190.84375 C 383.77683,193.08922 383.91458,195.27947 384.34375,197.375 C 385.97422,196.86708 387.75452,196.12026 388.96875,196.15625 C 409.13756,192.82818 430.81212,197.13556 447.3125,209.53125 C 464.26081,218.90607 484.71912,216.2223 501.6875,207.8125 C 504.38903,204.33436 506.64801,200.59663 508.40625,196.65625 C 506.53741,196.94134 504.72179,197.35786 503.65625,197.65625 C 485.893,200.77007 465.13954,204.96216 449.8125,192.59375 C 440.27833,184.26358 427.50095,180.70202 415,180.625 z" transform="matrix(-0.3501787,1.2731238,-1.2731238,-0.3501787,681.88843,-169.91585)" id="path8555"/>
        <path style="fill:#b35552;fill-opacity:1;fill-rule:nonzero;stroke:none;stroke-width:1.70951807;stroke-linecap:round;stroke-linejoin:round;stroke-miterlimit:4;stroke-dasharray:none;stroke-opacity:1" d="M 410.3125,198.75 C 402.68177,199.31924 394.8434,202.7804 389.6875,208.375 C 390.6413,209.57331 391.71605,210.73223 392.875,211.84375 C 395.45448,211.64623 398.5205,210.45762 400.90625,210.9375 C 415.52581,210.11509 429.66379,215.27017 441.09375,224.28125 C 446.22633,226.94617 452.20333,228.8582 458.28125,229.625 C 459.2416,229.56759 460.19298,229.51674 461.15625,229.4375 C 471.0877,228.62048 479.96114,225.47488 487.4375,220.75 C 491.32595,215.34333 481.47646,216.39798 477.78125,217.34375 C 464.81468,219.54017 450.75447,218.5929 440,210.3125 C 431.18948,204.41512 421.35464,198.29314 410.3125,198.75 z" transform="matrix(-0.3501787,1.2731238,-1.2731238,-0.3501787,681.88843,-169.91585)" id="path8557"/>
        <path style="fill:#7fe66b;fill-opacity:1;fill-rule:nonzero;stroke:none;stroke-width:1.70000005;stroke-linecap:round;stroke-linejoin:round;stroke-miterlimit:4;stroke-dasharray:none;stroke-opacity:1" d="M 413.75,182.6875 C 401.64371,182.88603 390.15538,186.66941 383.90625,193.6875 C 383.93057,194.19831 383.94512,194.71623 384,195.21875 C 392.03122,192.60217 421.78045,189.27253 444.9375,205.59375 C 464.16098,219.14258 488.90391,212.68492 504.3125,204.1875 C 505.37919,202.55609 506.34087,200.87703 507.21875,199.15625 C 481.37431,203.55598 464.17244,207.09885 446.8125,192.84375 C 438.19256,185.76551 425.67479,182.49194 413.75,182.6875 z" transform="matrix(-0.3501787,1.2731238,-1.2731238,-0.3501787,681.88843,-169.91585)" id="path8520"/>
        <path sodipodi:nodetypes="cscsc" id="path8522" d="M 233.33173,373.12468 C 219.6774,356.61271 231.79922,323.68979 247.4131,311.87038 C 276.2813,290.01775 277.23941,255.63886 277.96635,253.81037 C 290.07895,280.08576 280.71624,295.34492 259.09139,313.86104 C 238.00268,331.9181 238.14275,344.69195 233.33173,373.12468 z" style="fill:#eeb2b3;fill-opacity:1;fill-rule:nonzero;stroke:none;stroke-width:1.70951807;stroke-linecap:round;stroke-linejoin:round;stroke-miterlimit:4;stroke-dasharray:none;stroke-opacity:1"/>
        <path style="fill:#000000;fill-opacity:0.2662116;fill-rule:nonzero;stroke:none;stroke-width:0.31205362;stroke-linecap:round;stroke-linejoin:round;stroke-miterlimit:4;stroke-opacity:1;filter:url(#filter3401)" d="M 386.34375,333.0625 C 373.76374,350.06572 349.74074,364.33856 318.125,369.0625 C 273.71206,375.69858 230.11935,372.0702 207.375,359.875 C 207.64214,361.45561 208.02122,363.00581 208.53125,364.53125 C 216.58604,387.10499 240.72385,398.05435 262.46875,403.21875 C 289.07075,409.01439 318.31023,410.41833 343.59375,398.78125 C 368.25607,386.76299 385.83697,360.40543 386.34375,333.0625 z" transform="matrix(-0.2652055,0.9641919,-0.9641919,-0.2652055,701.32253,143.30717)" id="path3633"/>
        <path style="fill:#000000;fill-opacity:0.35836176;fill-rule:nonzero;stroke:none;stroke-width:0.31205362;stroke-linecap:round;stroke-linejoin:round;stroke-miterlimit:4;stroke-opacity:1;filter:url(#filter3489)" d="M 382.78125,353.59375 C 369.29237,370.81801 347.57246,384.68239 320.15625,389.71875 C 283.71988,396.41215 247.84191,394.60578 223.5625,385.46875 C 234.49386,394.56027 248.94194,400.00614 262.46875,403.21875 C 289.07075,409.01439 318.31023,410.41833 343.59375,398.78125 C 361.9552,389.83348 376.38914,372.9312 382.78125,353.59375 z" transform="matrix(-0.2652055,0.9641919,-0.9641919,-0.2652055,701.32253,143.30717)" id="path3635"/>
      </g>
    </g>
  </g>
</svg>