<?xml version="1.0" encoding="UTF-8" standalone="no"?>
<!-- Created with Inkscape (http://www.inkscape.org/) -->
<svg xmlns:dc="http://purl.org/dc/elements/1.1/" xmlns:cc="http://creativecommons.org/ns#" xmlns:rdf="http://www.w3.org/1999/02/22-rdf-syntax-ns#" xmlns:svg="http://www.w3.org/2000/svg" xmlns="http://www.w3.org/2000/svg" xmlns:sodipodi="http://sodipodi.sourceforge.net/DTD/sodipodi-0.dtd" xmlns:inkscape="http://www.inkscape.org/namespaces/inkscape" width="83.978607" height="69.947838" id="svg3311" sodipodi:version="0.32" inkscape:version="0.46" version="1.0" sodipodi:docname="red_easter_egg.svg" inkscape:output_extension="org.inkscape.output.svg.inkscape">
  <defs id="defs3313">
    <filter inkscape:collect="always" id="filter3489">
      <feGaussianBlur inkscape:collect="always" stdDeviation="1.0660625" id="feGaussianBlur3491"/>
    </filter>
    <filter inkscape:collect="always" id="filter3401">
      <feGaussianBlur inkscape:collect="always" stdDeviation="1.2674687" id="feGaussianBlur3403"/>
    </filter>
    <filter inkscape:collect="always" id="filter3585">
      <feGaussianBlur inkscape:collect="always" stdDeviation="1.1348571" id="feGaussianBlur3587"/>
    </filter>
    <filter inkscape:collect="always" id="filter3385">
      <feGaussianBlur inkscape:collect="always" stdDeviation="2.3434138" id="feGaussianBlur3387"/>
    </filter>
    <inkscape:perspective sodipodi:type="inkscape:persp3d" inkscape:vp_x="0 : 526.18109 : 1" inkscape:vp_y="0 : 1000 : 0" inkscape:vp_z="744.09448 : 526.18109 : 1" inkscape:persp3d-origin="372.04724 : 350.78739 : 1" id="perspective3319"/>
  </defs>
  <sodipodi:namedview id="base" pagecolor="#ffffff" bordercolor="#666666" borderopacity="1.0" inkscape:pageopacity="0.0" inkscape:pageshadow="2" inkscape:zoom="0.35" inkscape:cx="350" inkscape:cy="520" inkscape:document-units="px" inkscape:current-layer="layer1" showgrid="false" inkscape:window-width="1024" inkscape:window-height="699" inkscape:window-x="0" inkscape:window-y="0"/>
  <metadata id="metadata3316">
    <rdf:RDF>
      <cc:Work rdf:about="">
        <dc:format>image/svg+xml</dc:format>
        <dc:type rdf:resource="http://purl.org/dc/dcmitype/StillImage"/>
      </cc:Work>
    </rdf:RDF>
  </metadata>
  <g inkscape:label="Ebene 1" inkscape:groupmode="layer" id="layer1" transform="translate(-792.29641,111.18316)">
    <g transform="matrix(0.4382644,0,0,0.4382644,706.08433,-226.39087)" id="g3653" style="opacity:1">
      <path sodipodi:type="arc" style="opacity:1;fill:#2f2f2f;fill-opacity:0.79607843;fill-rule:nonzero;stroke:none;stroke-width:0.30000001;stroke-linecap:round;stroke-linejoin:round;stroke-miterlimit:4;stroke-dasharray:none;stroke-opacity:1;filter:url(#filter3385)" id="path3655" sodipodi:cx="289.97256" sodipodi:cy="396.99365" sodipodi:rx="115.68325" sodipodi:ry="46.884842" d="M 405.65582,396.99365 A 115.68325,46.884842 0 1 1 174.28931,396.99365 A 115.68325,46.884842 0 1 1 405.65582,396.99365 z" transform="matrix(0.8281938,0,0,1.0217391,52.367163,-31.053481)"/>
      <g id="g3657" transform="matrix(-0.2652055,-0.9641919,0.9641919,-0.2652055,47.818978,714.21535)">
        <path id="path3659" d="M 294.53125,247.6875 C 270.62967,249.46719 253.68384,269.84087 242.9375,289.4375 C 230.29441,313.54989 221.17245,341.37937 225.6875,368.84375 C 231.83577,401.69223 261.29936,430.08302 295.5625,430.125 C 331.51833,430.46984 363.08226,399.73781 366.91438,364.6339 C 370.30897,337.78798 360.52774,311.26202 348.15625,287.90625 C 338.03655,270.90902 323.87897,253.68968 303.89987,248.55963 C 300.829,247.8789 297.6815,247.51644 294.53125,247.6875 z" style="fill:#a10a0c;fill-opacity:1;fill-rule:nonzero;stroke:none;stroke-width:0.31205362;stroke-linecap:round;stroke-linejoin:round;stroke-miterlimit:4;stroke-opacity:1"/>
        <path sodipodi:nodetypes="csszs" id="path3661" d="M 359.79459,336.85873 C 368.61748,383.65877 333.92453,423.48774 294.04949,423.48774 C 254.17445,423.48774 219.48148,383.65877 228.30438,336.85873 C 237.18563,289.7491 265.20305,250.22973 294.04949,250.22973 C 321.79305,250.22973 350.91334,289.7491 359.79459,336.85873 z" style="fill:#fb5b5b;fill-opacity:1;fill-rule:nonzero;stroke:none;stroke-width:0.31205362;stroke-linecap:round;stroke-linejoin:round;stroke-miterlimit:4;stroke-opacity:1"/>
        <path style="opacity:1;fill:#b72a3a;fill-opacity:1;fill-rule:nonzero;stroke:none;stroke-width:1.70000005;stroke-linecap:round;stroke-linejoin:round;stroke-miterlimit:4;stroke-dasharray:none;stroke-opacity:1" d="M 574.84375,99.34375 C 571.61975,104.55106 568.09489,111.4938 573.6875,116.125 C 577.09918,119.16894 582.99707,122.3157 580.21875,127.78125 C 577.98552,133.35835 574.40622,142.09787 581.53125,145.78125 C 582.50094,146.63587 584.22945,147.66699 585.8125,148.15625 C 586.99327,147.05173 588.10686,145.90398 589.09375,144.65625 C 587.88112,139.03173 587.90851,133.18209 591.25,128.21875 C 595.0868,120.8069 587.05438,115.55249 582.75,110.875 C 580.67476,108.40774 580.80962,104.77211 580.34375,101.625 C 578.60901,100.70599 576.75248,99.935933 574.84375,99.34375 z" transform="matrix(-0.6051267,2.2000234,-2.2000234,-0.6051267,915.91512,-812.93869)" id="path3275"/>
        <path style="opacity:0.9969325;fill:#175482;fill-opacity:1;fill-rule:nonzero;stroke:none;stroke-width:1.70000005;stroke-linecap:round;stroke-linejoin:round;stroke-miterlimit:4;stroke-dasharray:none;stroke-opacity:1" d="M 564.6875,97.875 C 562.69358,97.911566 560.65301,98.143107 558.625,98.5625 C 558.03661,104.40298 556.00924,110.46711 556,116.3125 C 557.04268,122.49782 566.21004,124.3672 566,130.71875 C 564.21276,136.15057 560.53439,142.03743 564.09375,147.75 C 565.55583,150.39938 567.33736,156.23678 570.375,156.21875 C 570.41447,156.21014 570.4606,156.22749 570.5,156.21875 C 570.77896,156.15686 571.06839,156.09964 571.34375,156.03125 C 571.37459,156.01904 571.40643,156.01339 571.4375,156 C 571.83464,155.82882 572.24994,155.53783 572.6875,155.15625 C 576.71249,153.19145 578.7776,147.82053 574.78125,144.6875 C 569.86172,140.32413 575.7016,133.69447 576,128.625 C 578.28643,121.62582 571.03345,117.99353 567.4375,113.53125 C 566.42445,108.44933 570.34563,102.00592 565.09375,98.03125 C 565.03494,97.986136 564.96557,97.925061 564.90625,97.875 C 564.83346,97.875846 564.76037,97.873664 564.6875,97.875 z" transform="matrix(-0.6051267,2.2000234,-2.2000234,-0.6051267,915.91512,-812.93869)" id="path3281"/>
        <path style="opacity:0.9969325;fill:#175482;fill-opacity:1;fill-rule:nonzero;stroke:none;stroke-width:1.70000005;stroke-linecap:round;stroke-linejoin:round;stroke-miterlimit:4;stroke-dasharray:none;stroke-opacity:1" d="M 548.75,102.25 C 545.92512,103.72911 543.26112,105.3844 540.75,107.15625 C 539.12145,113.81074 539.24439,120.83687 544.09375,126.25 C 549.74538,131.10766 545.13015,138.06455 544.34375,143.8125 C 543.51139,149.61361 548.66439,152.85856 551.96875,156.75 C 553.09322,156.87098 554.22406,156.96354 555.375,157.03125 C 558.42328,154.38174 557.15294,148.08156 556.8125,144.40625 C 555.6693,140.24695 555.55826,135.98343 558.09375,132.34375 C 560.30118,125.80954 554.05344,121.45415 551.53125,116.34375 C 551.13177,111.61752 553.40456,106.06269 548.9375,102.5 C 548.87181,102.42707 548.81335,102.33145 548.75,102.25 z" transform="matrix(-0.6051267,2.2000234,-2.2000234,-0.6051267,915.91512,-812.93869)" id="path3279"/>
        <path style="opacity:1;fill:#b72a3a;fill-opacity:1;fill-rule:nonzero;stroke:none;stroke-width:1.70000005;stroke-linecap:round;stroke-linejoin:round;stroke-miterlimit:4;stroke-dasharray:none;stroke-opacity:1" d="M 533.875,112.6875 C 530.73305,115.60015 528.04689,118.70345 525.96875,121.8125 C 525.37962,124.57881 525.77491,127.20502 528.53125,129.15625 C 532.12626,131.10606 534.49573,135.47365 531.46875,139 C 528.85603,142.92311 529.4725,148.01049 532.4375,151.125 C 534.4801,152.2317 536.72352,153.21229 539.15625,154.03125 C 539.17474,154.03748 539.20024,154.02504 539.21875,154.03125 C 541.49749,153.45131 540.38603,148.93538 539.90625,146.71875 C 538.27357,140.72836 546.77224,137.20179 543.5625,131.25 C 541.46233,126.03306 535.27439,124.04082 535.1875,117.84375 C 534.80958,116.70344 534.50691,114.37116 533.875,112.6875 z" transform="matrix(-0.6051267,2.2000234,-2.2000234,-0.6051267,915.91512,-812.93869)" id="path3271"/>
        <path style="opacity:1;fill:#f19da7;fill-opacity:1;fill-rule:nonzero;stroke:none;stroke-width:1.70000005;stroke-linecap:round;stroke-linejoin:round;stroke-miterlimit:4;stroke-dasharray:none;stroke-opacity:1" d="M 576.78125,100 C 575.17923,102.59989 572.20402,107.89429 572.65625,110.8125 C 573.36537,115.38826 581.35623,118.16305 582.59375,122.625 C 584.09784,128.04796 577.50116,135.95756 579.65625,141.15625 C 580.72111,143.72501 586.83553,146.51768 587.28125,146.71875 C 587.32162,146.67586 587.36614,146.63683 587.40625,146.59375 C 587.31137,146.0536 586.02579,138.75842 586.34375,135.5 C 586.72736,131.56876 590.88626,126.75087 590.125,122.875 C 589.20863,118.20935 582.20152,114.83844 580.1875,110.53125 C 579.08596,108.17546 578.37769,103.26993 578.03125,100.5 C 577.62449,100.32519 577.1966,100.15835 576.78125,100 z" transform="matrix(-0.6051267,2.2000234,-2.2000234,-0.6051267,915.91512,-812.93869)" id="path3267"/>
        <path style="opacity:0.9969325;fill:#68a6d5;fill-opacity:1;fill-rule:nonzero;stroke:none;stroke-width:1.70000005;stroke-linecap:round;stroke-linejoin:round;stroke-miterlimit:4;stroke-dasharray:none;stroke-opacity:1" d="M 562.25,98.03125 C 561.72322,98.080454 561.18525,98.143259 560.65625,98.21875 C 560.47295,102.03431 558.5751,110.59334 557.90625,114.375 C 556.96562,119.69342 567.49043,123.82034 568.09375,129.1875 C 568.53188,133.08532 563.83557,138.84539 564.625,142.6875 C 565.66688,147.75823 568.00287,150.9545 569.96875,154.5625 C 569.96875,154.5625 574.71477,151.6996 575,149.59375 C 575.33109,147.14911 571.34344,144.89666 570.90625,142.46875 C 569.906,136.91398 575.51871,129.34218 574,123.90625 C 572.93572,120.09683 566.73762,117.63075 565.40625,113.90625 C 564.23339,110.62514 566.89715,105.54898 565.6875,102.28125 C 565.21336,101.00041 563.6007,99.30533 562.25,98.03125 z" transform="matrix(-0.6051267,2.2000234,-2.2000234,-0.6051267,915.91512,-812.93869)" id="path3265"/>
        <path style="opacity:0.9969325;fill:#68a6d5;fill-opacity:1;fill-rule:nonzero;stroke:none;stroke-width:1.70000005;stroke-linecap:round;stroke-linejoin:round;stroke-miterlimit:4;stroke-dasharray:none;stroke-opacity:1" d="M 546.96875,103.21875 C 545.76842,103.89117 544.61098,104.58369 543.46875,105.3125 C 540.97573,114.06296 540.71043,118.31809 545.6875,125.03125 C 548.33166,128.59774 550.59011,130.5331 547.375,139.53125 C 543.47315,150.45143 551.26956,150.54945 553.59375,156.1875 C 556.09688,154.4711 555.49787,148.22023 554.15625,140.53125 C 552.98846,133.83856 557.12024,134.05756 556.34375,128.53125 C 555.38506,121.70813 548.42897,120.97366 549.4375,113.21875 C 550.33788,106.29547 549.96321,107.6012 546.96875,103.21875 z" transform="matrix(-0.6051267,2.2000234,-2.2000234,-0.6051267,915.91512,-812.93869)" id="path3263"/>
        <path style="opacity:1;fill:#f19da7;fill-opacity:1;fill-rule:nonzero;stroke:none;stroke-width:1.70000005;stroke-linecap:round;stroke-linejoin:round;stroke-miterlimit:4;stroke-dasharray:none;stroke-opacity:1" d="M 532.28125,114.21875 C 531.52586,114.97161 530.81517,115.73068 530.125,116.5 C 526.02798,125.82043 527.44762,125.55153 531.1875,128.78125 C 535.67865,132.65975 535.54367,135.26588 533.65625,139 C 528.94219,148.3264 534.26831,150.51832 538.5625,152.15625 C 539.80359,153.38011 534.85161,143.54758 541,137.40625 C 544.81698,133.59363 538.90433,127.59017 536.8125,126 C 534.11871,123.95223 533.38183,118.61368 532.28125,114.21875 z" transform="matrix(-0.6051267,2.2000234,-2.2000234,-0.6051267,915.91512,-812.93869)" id="path3269"/>
        <path style="fill:#ffffff;fill-opacity:0.38907848;fill-rule:nonzero;stroke:none;stroke-width:0.31205362;stroke-linecap:round;stroke-linejoin:round;stroke-miterlimit:4;stroke-opacity:1;filter:url(#filter3585)" d="M 311.53125,270.03125 C 300.2709,269.93548 288.55209,272.41225 277.1875,277.96875 C 242.26871,295.04162 215.69858,323.60146 210.8125,348.0625 C 220.8203,326.98285 249.13541,304.21517 285,289.9375 C 310.66009,279.72223 337.79234,280.55747 359.75,288.75 C 347.1425,277.21265 329.94193,270.18783 311.53125,270.03125 z" transform="matrix(-0.2652055,0.9641919,-0.9641919,-0.2652055,701.32253,143.30717)" id="path3663"/>
        <path style="fill:#000000;fill-opacity:0.2662116;fill-rule:nonzero;stroke:none;stroke-width:0.31205362;stroke-linecap:round;stroke-linejoin:round;stroke-miterlimit:4;stroke-opacity:1;filter:url(#filter3401)" d="M 386.34375,333.0625 C 373.76374,350.06572 349.74074,364.33856 318.125,369.0625 C 273.71206,375.69858 230.11935,372.0702 207.375,359.875 C 207.64214,361.45561 208.02122,363.00581 208.53125,364.53125 C 216.58604,387.10499 240.72385,398.05435 262.46875,403.21875 C 289.07075,409.01439 318.31023,410.41833 343.59375,398.78125 C 368.25607,386.76299 385.83697,360.40543 386.34375,333.0625 z" transform="matrix(-0.2652055,0.9641919,-0.9641919,-0.2652055,701.32253,143.30717)" id="path3665"/>
        <path style="fill:#000000;fill-opacity:0.35836176;fill-rule:nonzero;stroke:none;stroke-width:0.31205362;stroke-linecap:round;stroke-linejoin:round;stroke-miterlimit:4;stroke-opacity:1;filter:url(#filter3489)" d="M 382.78125,353.59375 C 369.29237,370.81801 347.57246,384.68239 320.15625,389.71875 C 283.71988,396.41215 247.84191,394.60578 223.5625,385.46875 C 234.49386,394.56027 248.94194,400.00614 262.46875,403.21875 C 289.07075,409.01439 318.31023,410.41833 343.59375,398.78125 C 361.9552,389.83348 376.38914,372.9312 382.78125,353.59375 z" transform="matrix(-0.2652055,0.9641919,-0.9641919,-0.2652055,701.32253,143.30717)" id="path3667"/>
      </g>
    </g>
  </g>
</svg>