<?xml version="1.0" encoding="UTF-8" standalone="no"?>
<!-- Created with Inkscape (http://www.inkscape.org/) -->
<svg xmlns:dc="http://purl.org/dc/elements/1.1/" xmlns:cc="http://creativecommons.org/ns#" xmlns:rdf="http://www.w3.org/1999/02/22-rdf-syntax-ns#" xmlns:svg="http://www.w3.org/2000/svg" xmlns="http://www.w3.org/2000/svg" xmlns:sodipodi="http://sodipodi.sourceforge.net/DTD/sodipodi-0.dtd" xmlns:inkscape="http://www.inkscape.org/namespaces/inkscape" width="145.11934" height="120.87347" id="svg8250" sodipodi:version="0.32" inkscape:version="0.46" version="1.0" sodipodi:docname="violet_easter_egg.svg" inkscape:output_extension="org.inkscape.output.svg.inkscape">
  <defs id="defs8252">
    <filter inkscape:collect="always" id="filter3489">
      <feGaussianBlur inkscape:collect="always" stdDeviation="1.0660625" id="feGaussianBlur3491"/>
    </filter>
    <filter inkscape:collect="always" id="filter3401">
      <feGaussianBlur inkscape:collect="always" stdDeviation="1.2674687" id="feGaussianBlur3403"/>
    </filter>
    <filter inkscape:collect="always" id="filter3585">
      <feGaussianBlur inkscape:collect="always" stdDeviation="1.1348571" id="feGaussianBlur3587"/>
    </filter>
    <filter inkscape:collect="always" id="filter3385">
      <feGaussianBlur inkscape:collect="always" stdDeviation="2.3434138" id="feGaussianBlur3387"/>
    </filter>
    <inkscape:perspective sodipodi:type="inkscape:persp3d" inkscape:vp_x="0 : 526.18109 : 1" inkscape:vp_y="0 : 1000 : 0" inkscape:vp_z="744.09448 : 526.18109 : 1" inkscape:persp3d-origin="372.04724 : 350.78739 : 1" id="perspective8258"/>
  </defs>
  <sodipodi:namedview id="base" pagecolor="#ffffff" bordercolor="#666666" borderopacity="1.0" inkscape:pageopacity="0.0" inkscape:pageshadow="2" inkscape:zoom="1.9505793" inkscape:cx="192.56376" inkscape:cy="12.012938" inkscape:document-units="px" inkscape:current-layer="layer1" showgrid="false" inkscape:window-width="1024" inkscape:window-height="699" inkscape:window-x="0" inkscape:window-y="0"/>
  <metadata id="metadata8255">
    <rdf:RDF>
      <cc:Work rdf:about="">
        <dc:format>image/svg+xml</dc:format>
        <dc:type rdf:resource="http://purl.org/dc/dcmitype/StillImage"/>
      </cc:Work>
    </rdf:RDF>
  </metadata>
  <g inkscape:label="Ebene 1" inkscape:groupmode="layer" id="layer1" transform="translate(-53.154615,-840.49689)">
    <g transform="matrix(0.7573434,0,0,0.7573434,-95.824293,641.41205)" id="g3637">
      <path sodipodi:type="arc" style="opacity:1;fill:#2f2f2f;fill-opacity:0.79607843;fill-rule:nonzero;stroke:none;stroke-width:0.30000001;stroke-linecap:round;stroke-linejoin:round;stroke-miterlimit:4;stroke-dasharray:none;stroke-opacity:1;filter:url(#filter3385)" id="path3639" sodipodi:cx="289.97256" sodipodi:cy="396.99365" sodipodi:rx="115.68325" sodipodi:ry="46.884842" d="M 405.65582,396.99365 A 115.68325,46.884842 0 1 1 174.28931,396.99365 A 115.68325,46.884842 0 1 1 405.65582,396.99365 z" transform="matrix(0.8281938,0,0,1.0217391,52.367163,-31.053481)"/>
      <g id="g3641" transform="matrix(-0.2652055,-0.9641919,0.9641919,-0.2652055,47.818978,714.21535)">
        <path id="path3643" d="M 294.53125,247.6875 C 270.62967,249.46719 253.68384,269.84087 242.9375,289.4375 C 230.29441,313.54989 221.17245,341.37937 225.6875,368.84375 C 231.83577,401.69223 261.29936,430.08302 295.5625,430.125 C 331.51833,430.46984 363.08226,399.73781 366.91438,364.6339 C 370.30897,337.78798 360.52774,311.26202 348.15625,287.90625 C 338.03655,270.90902 323.87897,253.68968 303.89987,248.55963 C 300.829,247.8789 297.6815,247.51644 294.53125,247.6875 z" style="fill:#44007f;fill-opacity:1;fill-rule:nonzero;stroke:none;stroke-width:0.31205362;stroke-linecap:round;stroke-linejoin:round;stroke-miterlimit:4;stroke-opacity:1"/>
        <path sodipodi:nodetypes="csszs" id="path3645" d="M 359.79459,336.85873 C 368.61748,383.65877 333.92453,423.48774 294.04949,423.48774 C 254.17445,423.48774 219.48148,383.65877 228.30438,336.85873 C 237.18563,289.7491 265.20305,250.22973 294.04949,250.22973 C 321.79305,250.22973 350.91334,289.7491 359.79459,336.85873 z" style="fill:#b166c7;fill-opacity:1;fill-rule:nonzero;stroke:none;stroke-width:0.31205362;stroke-linecap:round;stroke-linejoin:round;stroke-miterlimit:4;stroke-opacity:1"/>
        <path style="fill:#6a9a17;fill-opacity:1;fill-rule:nonzero;stroke:none;stroke-width:1.70000005;stroke-linecap:round;stroke-linejoin:round;stroke-miterlimit:4;stroke-opacity:1" d="M 479.0625,316.09375 C 475.40173,318.92728 472.00544,321.89574 468.90625,324.96875 C 476.2482,346.98525 474.96717,364.51485 471.03125,390.0625 C 474.99205,392.02521 479.36205,393.72088 484.0625,395.09375 C 486.68148,372.25235 492.71605,351.95181 479.0625,316.09375 z" transform="matrix(-0.3501787,1.2731238,-1.2731238,-0.3501787,920.64713,-193.85848)" id="rect3850"/>
        <path style="fill:#6a9a17;fill-opacity:1;fill-rule:nonzero;stroke:none;stroke-width:1.70000005;stroke-linecap:round;stroke-linejoin:round;stroke-miterlimit:4;stroke-opacity:1" d="M 512.96875,298.40625 C 508.9293,299.33617 504.90121,300.73429 500.90625,302.625 C 510.52384,334.00897 513.26612,363.18949 509.0625,399.21875 C 513.60419,399.46847 518.24784,399.47061 522.9375,399.21875 C 525.23465,369.96116 528.03239,345.08775 512.96875,298.40625 z" transform="matrix(-0.3501787,1.2731238,-1.2731238,-0.3501787,920.64713,-193.85848)" id="path3853"/>
        <path style="fill:#6a9a17;fill-opacity:1;fill-rule:nonzero;stroke:none;stroke-width:1.70000005;stroke-linecap:round;stroke-linejoin:round;stroke-miterlimit:4;stroke-opacity:1" d="M 537.0625,298.125 C 546.26711,326.77983 550.30602,360.84098 546.71875,393.65625 C 551.51414,391.40473 555.86008,388.54553 559.6875,385.21875 C 560.59601,359.4074 561.60397,340.16528 551.46875,303.28125 C 546.99359,300.94001 542.15021,299.17954 537.0625,298.125 z" transform="matrix(-0.3501787,1.2731238,-1.2731238,-0.3501787,920.64713,-193.85848)" id="path3855"/>
        <path style="fill:#b2ec22;fill-opacity:1;fill-rule:nonzero;stroke:none;stroke-width:1.70000005;stroke-linecap:round;stroke-linejoin:round;stroke-miterlimit:4;stroke-opacity:1" d="M 476.78125,317.90625 C 474.69078,319.60978 472.67685,321.33864 470.78125,323.125 C 478.57954,345.94708 477.61411,364.78365 473.5625,391.25 C 475.88838,392.28749 478.34552,393.24291 480.90625,394.09375 C 483.66888,371.65241 490.40214,353.48757 476.78125,317.90625 z" transform="matrix(-0.3501787,1.2731238,-1.2731238,-0.3501787,920.64713,-193.85848)" id="path3857"/>
        <path style="fill:#b2ec22;fill-opacity:1;fill-rule:nonzero;stroke:none;stroke-width:1.70000005;stroke-linecap:round;stroke-linejoin:round;stroke-miterlimit:4;stroke-opacity:1" d="M 511,298.90625 C 508.40385,299.60082 505.82855,300.47175 503.25,301.5625 C 512.94435,333.11445 515.70048,363.08815 511.46875,399.3125 C 514.37456,399.41641 517.31547,399.41074 520.28125,399.3125 C 522.64548,370.10746 526.10352,345.66705 511,298.90625 z" transform="matrix(-0.3501787,1.2731238,-1.2731238,-0.3501787,920.64713,-193.85848)" id="path3859"/>
        <path style="fill:#b2ec22;fill-opacity:1;fill-rule:nonzero;stroke:none;stroke-width:1.70000005;stroke-linecap:round;stroke-linejoin:round;stroke-miterlimit:4;stroke-opacity:1" d="M 539.875,298.78125 C 549.01149,327.16199 552.24726,360.11284 548.71875,392.65625 C 551.87355,391.02002 554.81735,389.13032 557.53125,387 C 558.40486,360.59697 559.2711,339.05906 549.25,302.1875 C 546.25455,300.7892 543.13214,299.63365 539.875,298.78125 z" transform="matrix(-0.3501787,1.2731238,-1.2731238,-0.3501787,920.64713,-193.85848)" id="path3861"/>
        <path style="fill:#ffffff;fill-opacity:0.38907848;fill-rule:nonzero;stroke:none;stroke-width:0.31205362;stroke-linecap:round;stroke-linejoin:round;stroke-miterlimit:4;stroke-opacity:1;filter:url(#filter3585)" d="M 311.53125,270.03125 C 300.2709,269.93548 288.55209,272.41225 277.1875,277.96875 C 242.26871,295.04162 215.69858,323.60146 210.8125,348.0625 C 220.8203,326.98285 249.13541,304.21517 285,289.9375 C 310.66009,279.72223 337.79234,280.55747 359.75,288.75 C 347.1425,277.21265 329.94193,270.18783 311.53125,270.03125 z" transform="matrix(-0.2652055,0.9641919,-0.9641919,-0.2652055,701.32253,143.30717)" id="path3647"/>
        <path style="fill:#000000;fill-opacity:0.2662116;fill-rule:nonzero;stroke:none;stroke-width:0.31205362;stroke-linecap:round;stroke-linejoin:round;stroke-miterlimit:4;stroke-opacity:1;filter:url(#filter3401)" d="M 386.34375,333.0625 C 373.76374,350.06572 349.74074,364.33856 318.125,369.0625 C 273.71206,375.69858 230.11935,372.0702 207.375,359.875 C 207.64214,361.45561 208.02122,363.00581 208.53125,364.53125 C 216.58604,387.10499 240.72385,398.05435 262.46875,403.21875 C 289.07075,409.01439 318.31023,410.41833 343.59375,398.78125 C 368.25607,386.76299 385.83697,360.40543 386.34375,333.0625 z" transform="matrix(-0.2652055,0.9641919,-0.9641919,-0.2652055,701.32253,143.30717)" id="path3649"/>
        <path style="fill:#000000;fill-opacity:0.35836176;fill-rule:nonzero;stroke:none;stroke-width:0.31205362;stroke-linecap:round;stroke-linejoin:round;stroke-miterlimit:4;stroke-opacity:1;filter:url(#filter3489)" d="M 382.78125,353.59375 C 369.29237,370.81801 347.57246,384.68239 320.15625,389.71875 C 283.71988,396.41215 247.84191,394.60578 223.5625,385.46875 C 234.49386,394.56027 248.94194,400.00614 262.46875,403.21875 C 289.07075,409.01439 318.31023,410.41833 343.59375,398.78125 C 361.9552,389.83348 376.38914,372.9312 382.78125,353.59375 z" transform="matrix(-0.2652055,0.9641919,-0.9641919,-0.2652055,701.32253,143.30717)" id="path3651"/>
      </g>
    </g>
  </g>
</svg>